<!DOCTYPE svg PUBLIC "-//W3C//DTD SVG 1.1//EN" "http://www.w3.org/Graphics/SVG/1.1/DTD/svg11.dtd">
<!-- Uploaded to: SVG Repo, www.svgrepo.com, Transformed by: SVG Repo Mixer Tools -->
<svg height="65px" width="65px" version="1.1" id="Layer_1" xmlns="http://www.w3.org/2000/svg" xmlns:xlink="http://www.w3.org/1999/xlink" viewBox="0 0 512 512" xml:space="preserve" fill="#000000">
<g id="SVGRepo_bgCarrier" stroke-width="0"/>
<g id="SVGRepo_tracerCarrier" stroke-linecap="round" stroke-linejoin="round"/>
<g id="SVGRepo_iconCarrier"> <g> <path style="fill:#91DC5A;" d="M261.56,196.437c0,0-9.717-142.785,135.775-139.208C397.334,57.228,403.666,185.063,261.56,196.437z "/> <path style="fill:#91DC5A;" d="M255.616,192.771c0,0-143.776,9.948-140.2-135.544C115.416,57.228,244.243,50.665,255.616,192.771z"/> </g> <path style="fill:#458C62;" d="M260.34,195.166c0,0-107.573-95.886-1.157-195.166C259.181,0,353.873,87.578,260.34,195.166z"/> <path style="fill:#FF9811;" d="M325.51,152.022c-24.768,0-48.295-6.8-69.51,5.134c-21.215-11.934-44.742-18.579-69.51-18.579 c-93.737,0-169.725,43.692-169.725,161.006S92.752,512,186.49,512c24.768,0,48.295-6.645,69.51-18.579 c21.215,11.936,44.742,2.69,69.51,2.69c93.737,0,146.503-79.213,146.503-196.526S419.248,152.022,325.51,152.022z"/> <path style="fill:#ED8718;" d="M256,493.421C277.215,505.356,300.742,512,325.51,512c93.737,0,169.725-95.101,169.725-212.415 S419.248,138.578,325.51,138.578c-24.768,0-48.295,6.645-69.51,18.579V493.421z"/> </g>
</svg>