<?xml version="1.0" encoding="iso-8859-1"?>
<!-- Uploaded to: SVG Repo, www.svgrepo.com, Generator: SVG Repo Mixer Tools -->
<svg height="800px" width="800px" version="1.1" id="Layer_1" xmlns="http://www.w3.org/2000/svg" xmlns:xlink="http://www.w3.org/1999/xlink" 
	 viewBox="0 0 512 512" xml:space="preserve">
<path style="fill:#90BC42;" d="M256,162.476c-4.109-2.461-8.328-4.679-12.631-6.655C127.127,90.857,159.445,0,159.445,0
	C297.083,16.183,256,162.476,256,162.476z"/>
<path style="fill:#F7B239;" d="M318.867,144.705c80.844,0,146.378,82.226,146.378,183.654C465.244,429.774,399.711,512,318.867,512
	c-22.499,0-43.822-6.388-62.867-17.771C236.944,505.612,215.633,512,193.121,512c-80.844,0-146.365-82.226-146.365-183.642
	c0-101.428,65.521-183.654,146.365-183.654c17.65,0,34.573,3.928,50.247,11.116c4.025,2.255,8.231,4.473,12.632,6.655
	C275.044,151.093,296.367,144.705,318.867,144.705z"/>
<path style="fill:#B27214;" d="M256,210.917c35.7,0,64.649,48.841,64.649,109.089c0,87.281-64.649,109.101-64.649,109.101
	s-64.661-25.457-64.661-109.101C191.339,259.758,220.288,210.917,256,210.917z"/>
<path style="fill:#995C0D;" d="M239.829,320.006c0-45.78,16.717-84.967,40.412-101.151c-7.487-5.114-15.668-7.938-24.241-7.938
	c-35.712,0-64.661,48.841-64.661,109.089c0,83.644,64.661,109.101,64.661,109.101s11.56-3.903,24.902-15.005
	C262.425,398.563,239.829,369.454,239.829,320.006z"/>
<path style="fill:#9AD14B;" d="M256,162.476c-4.109-2.461-8.328-4.679-12.631-6.655C127.127,90.857,159.445,0,159.445,0
	S236.604,109.077,256,162.476z"/>
</svg>